<svg xmlns="http://www.w3.org/2000/svg" viewBox="0 0 1290.82 849.67"><defs><style>.a{fill:#fff;}</style></defs><path class="a" d="M573.5,624.14c-1.54-1-2.85-1.69-4-2.56q-44.06-32.46-88-65c-2.75-2.05-4.35-2-6.93.23-31.45,27-66.45,48.57-102.89,68-3.56,1.9-5.29,1.48-7.74-1.71C348.42,603,332.73,583,317.11,563c-.82-1.05-1.74-2-3-3.53L279,629.68c-3.44-4.52-6-7.83-8.51-11.21-7.94-10.76-15.93-21.5-23.71-32.38-2.24-3.14-4.68-4.55-8.68-4.47-25.39.51-50.78.75-76.18,1.09q-34.66.45-69.33.91c-12.31.17-24.62.48-36.93.65-6,.09-6.06,0-6.06-5.94V406.51L48,405.66,29,426.35c-1.67-6.85-3.29-13.22-4.76-19.62-8.07-35-16.15-70.08-24-105.17A10.92,10.92,0,0,1,1.49,294C33.14,244.64,57.88,191.92,77.7,136.81c.66-1.83,1.19-3.7,2-6.28a53.37,53.37,0,0,0-6-.68c-16.28,0-32.56-.14-48.83,0-4,0-5.61-.83-5.59-5.27q.27-53.39,0-106.78c0-4.15,1.43-5.07,5.3-5.06q110,.13,220,0c3.95,0,5.28,1.12,5.27,5.16q-.2,53.39,0,106.78c0,4-1.33,5.23-5.28,5.17-13.23-.2-26.47,0-39.7-.13-3.53,0-5.41,1-6.69,4.53-11.55,32-23.3,63.94-35,95.9-.45,1.23-.7,2.54-1.21,4.48h5.93c23,0,45.94.08,68.9-.08,4.05,0,5.54,1,5.61,5.31.4,23.85,1.12,47.71,1.74,71.56.62,24.16,1.17,48.32,1.88,72.47.41,14.43,1,28.85,1.62,43.27a3.23,3.23,0,0,0,1.65,2.55c1.54-7.34,3.25-14.66,4.6-22a470.17,470.17,0,0,0,7.51-85.59c-.25-83.2-.09-166.41-.09-249.61,0-6.71,0-6.71,6.7-6.72H379.38c6,0,6,0,6-6.11,0-18.25.1-36.51-.07-54.76,0-3.84,1.27-4.92,5-4.9q45.86.18,91.72,0c4.2,0,5.1,1.57,5.07,5.37-.15,18.1-.08,36.2-.06,54.31,0,6,.14,6.11,6.11,6.11H615c6,0,6,0,6,6,0,32.4,0,64.8-.07,97.2a25.4,25.4,0,0,1-1.7,8.81c-7.85,20.42-16,40.74-23.79,61.16a25.41,25.41,0,0,0-1.76,9.25q.73,45.14,1.83,90.27c.35,14.39-4,27.9-7.62,41.49a344.85,344.85,0,0,1-33.14,82.71c-2,3.5-.78,5,2,6.9,22.44,14.86,44.76,29.89,67.24,44.67,3.32,2.19,4,3.79,2.1,7.51-17,32.8-33.7,65.72-50.51,98.6C575,621.6,574.32,622.73,573.5,624.14ZM168.22,410c0-20.06-.11-40.12.08-60.18,0-4.29-1.5-5.68-5.56-5.47s-8.2,0-12.31.05c-6.59,0-6.68.08-6.68,6.59q0,52.2,0,104.4c0,4.71.17,9.43-.05,14.13-.17,3.85,1.07,5.58,5.19,5.31a99,99,0,0,1,13.67,0c4.31.3,5.8-1.1,5.75-5.58C168.09,449.46,168.22,429.7,168.22,410ZM330.51,510.11a47.16,47.16,0,0,0,4.86-2.09c19.41-11.89,38.78-23.86,58.23-35.69,3.46-2.1,4.08-3.75,1.44-7.34-13.49-18.33-26.67-36.88-40-55.34-.9-1.25-2-2.38-3-3.56l-1.23.31C348.8,441.4,339.38,474.94,330.51,510.11Zm191.23-337c-2.74-.2-4.37-.42-6-.43q-11.16,0-22.34,0c-5.88,0-6.3.38-6.31,6.14q-.06,30.1,0,60.2c0,5.78.4,6.18,6.27,6.19q36.25,0,72.51,0a42.25,42.25,0,0,0,4.61-.53c.06-.45.11-.91.16-1.37L504.2,221.09ZM385.42,209.27c0-10.63-.07-21.26,0-31.89,0-3.24-1.06-4.76-4.45-4.69q-9.12.19-18.22,0c-3.42-.08-4.51,1.54-4.5,4.71q.07,31.42,0,62.86c0,3.44,1.25,5.05,4.76,5,5.77-.09,11.54-.11,17.31,0,3.9.08,5.25-1.56,5.16-5.48C385.27,229.62,385.43,219.44,385.42,209.27Zm51,135.61,33.87,44.29a40.58,40.58,0,0,0,2.48-4.11c4.84-11.63,9.73-23.24,14.38-34.94,2.08-5.23,1.6-5.74-3.94-5.76q-20.52,0-41,0C440.7,344.37,439.26,344.61,436.38,344.88Z"/><path class="a" d="M1051.13,591.49l-3.29-3.71c-13.17-14.58-26.37-29.12-39.45-43.78-1.08-1.21-1.34-3.16-2.36-5.73h-7.74c-7,0-13.92-.1-20.87.08a6.68,6.68,0,0,0-4.44,1.76c-14.22,16.25-28.3,32.63-42.4,49-.45.52-.8,1.12-1.69,2.39h16.26c4.89,0,4.9,0,4.9,4.7q0,121.39.08,242.79c0,3.65-.88,4.71-4.67,4.7q-50.9-.25-101.8,0c-3.62,0-4.72-.76-4.71-4.59q.19-80.93.09-161.85V671.6c-34.88,21.78-70.41,40.18-107.43,57.27L696.36,613.76c23.29-10.81,46.61-21,69.33-32.35s44.77-24.09,63.3-41.82l-.37-1.11c-1.37-.07-2.75-.2-4.13-.2H741.36c-4.84,0-4.85,0-4.85-4.67q0-136.59-.08-273.18c0-3.67.88-4.76,4.63-4.75q247.56.14,495.1,0c3.69,0,4.74,1,4.74,4.73q-.15,136.59-.08,273.18c0,4.68,0,4.69-4.91,4.69h-82l-.45,1.17c42.1,30.86,86.89,56.81,137.32,73.51l-54.38,106.42a625.84,625.84,0,0,1-120.78-70.94c-.51.57-.79.72-.8.91-2.13,23.52,2.3,45,19.92,62.12,8.46,8.23,19.06,13.07,29.71,17.64,22.47,9.65,46.06,15.66,69.78,21.19,1.16.27,2.32.59,3.85,1-.86,1.38-1.52,2.51-2.25,3.6q-30.63,46-61.22,92c-1.88,2.85-3.3,3.46-6.66,2.12-31.09-12.43-61.3-26.54-88.89-45.75-24.52-17.08-45-37.72-57.9-65.18-8.3-17.73-13.81-36.33-14.37-55.87-.85-29.26-.61-58.56-.9-87.84,0-2.68,1.35-2.89,3.44-2.88,12.21,0,24.41,0,36.62,0Zm36.41-251c-13.53,0-27.06.07-40.59-.06-3.07,0-4.07,1.07-4,4,.17,5,.11,10,0,15,0,2.43.73,3.49,3.36,3.48q41.31-.1,82.63,0c2.47,0,3.13-.95,3.07-3.24-.12-5.12-.2-10.25,0-15.36.14-3.09-1-3.93-4-3.9C1114.6,340.57,1101.07,340.5,1087.54,340.5ZM891.16,362.9c13.18,0,26.36-.06,39.54.05,2.62,0,3.73-.65,3.62-3.48-.19-5.24-.13-10.49,0-15.74.06-2.31-.67-3.26-3.11-3.26q-40.08.09-80.17,0c-2.66,0-3.38,1.15-3.36,3.51.06,5,.12,10,0,15-.09,3,.91,4,4,4C864.8,362.82,878,362.9,891.16,362.9Zm196.66,90.65c13.42,0,26.85-.06,40.27.05,2.94,0,4.18-.79,4-3.93a114.72,114.72,0,0,1,0-12.44c.14-2.84-.75-3.87-3.69-3.79-7.07.18-14.15.05-21.23.05-20,0-40,.07-60-.06-3.25,0-4.33,1.05-4.16,4.21a95.51,95.51,0,0,1,0,11.35c-.23,3.51,1.08,4.67,4.59,4.62C1061,453.46,1074.4,453.55,1087.82,453.55Zm-197-20.05c-13,0-26.11.08-39.16-.07-3.07,0-4.12,1-4,4,.16,3.65,0,7.32,0,11,0,5.13,0,5.15,5,5.15h44.64c10.74,0,21.47-.11,32.21.07,3.5.06,5.18-.72,4.8-4.63a65.87,65.87,0,0,1,0-11c.25-3.42-.73-4.67-4.39-4.61C916.89,433.63,903.84,433.49,890.79,433.5Z"/></svg>