<svg xmlns="http://www.w3.org/2000/svg" viewBox="0 0 316.32 28.8"><defs><style>.a{fill:#fff;}</style></defs><path class="a" d="M1.76,34.36,4.24,17H1.52L2,13.16H11.6L9.44,28.6,13,28l-.6,4.12Zm8.56-28,1.48,5.32H5.72L4.28,6.32ZM34.68,19H27.8L25.68,34.28H18.2L20.32,19H13l.56-4h7.32L22,7,20.72,5.6h9L28.36,15h6.88Z" transform="translate(-1.52 -5.56)"/><path class="a" d="M70.44,13.16,68.68,25.68H66.4l-.24,1.52h4.6l-.48,3.44h-4.6l-.52,3.72h-7.6l.52-3.72H48l-1.8,3.72h-7.6l1.8-3.72H36.84l.48-3.44H42l.76-1.52h-3l1.76-12.52ZM49.36,7.08h7.48l-.4,3h-3l1.2,2.28H48.52l-1.08-2-1.2,2H39.4l3.36-5.8-.88-1h8.36ZM62.2,23l.16-1.16H47.16L47,23ZM47.44,20h15.2l.16-1.16H47.6Zm.44-3h15.2l.16-1.16H48ZM49.64,27.2h8.92l.24-1.52H50.4ZM65.32,7.08h8.24l-.4,3h-3.8l1.2,2.28H64.48l-1.08-2-1.2,2H55.36l3.36-5.8-.88-1H66.2Z" transform="translate(-1.52 -5.56)"/><path class="a" d="M74.72,33l3.4-17.52H81L77.56,33Zm7-18.68h-4.4l.52-3.8h4.4l.56-3.76-1-1.16h7.32l-.72,4.92H92l-.52,3.8H87.84L85,34.36H78.84ZM86,30.56l2-15.2h2.84l-2,15.2Zm21.68,3.72H99.28l.36-2.64,3-21H99.24l-4.4,23.64H88.48l5-27.48h15.8l-3.2,23h1.16l1.36-1.52Z" transform="translate(-1.52 -5.56)"/><path class="a" d="M142.08,33.68h-30.4L115.32,7.8,114,6.32h31.88Zm-5.52-3.8,2.8-19.76H121.12l-2.8,19.76Zm-7.84-3.72,1.4-9.84h-.68L124.72,27h-5.28l4.76-10.68h-3l.44-3.24h8.92l.2-1.36L130,10.8h6.88l-.32,2.28h1.52l-.44,3.24h-1.56L134.6,27a2.27,2.27,0,0,1-.84,1.48,2.5,2.5,0,0,1-1.64.6h-6.4Z" transform="translate(-1.52 -5.56)"/><path class="a" d="M179.6,20.36l-.24,1.56h2.28l-.52,3.8H178.8l-.24,1.84-7.16,2.8,9.28,4H166.76l-2.68-1.16-3,1.16H147.2l10.36-4L151.2,27.6l.28-1.88H149.2l.52-3.8H152l.24-1.56h6.84l-.24,1.56h13.68l.24-1.56Zm3.8-11-12.2.32L171,11.24h13l-.56,3.8H178l4.68,5h-8l-4.32-4.56L169.76,20h-7.6l.64-4.52L157.2,20h-8l6.08-5h-5.4l.56-3.8h12.88l.2-1.4-12.16.28.52-3.8,32-.76ZM164.88,27.8l4.88-2.08H160.6Z" transform="translate(-1.52 -5.56)"/><path class="a" d="M188.08,17.12l1-5.6a2.87,2.87,0,0,1,1.08-2A3.63,3.63,0,0,1,192.32,9h12l-1.48,8.16-4.32,3,2.44,2,2.28-3,4,.4-3.52,5,3.6,3.12-3.6,3.16L201,28.32l-2.32,3.28H188.16a2.29,2.29,0,0,1-2-.7,2.47,2.47,0,0,1-.3-1.9l1-5.56,4.68-3.24Zm6.52,5.64L191.32,25l-.52,2.88h5.72l1.6-2.12ZM199,12.64H193.6l-.52,2.88,2.4,2,3-2Z" transform="translate(-1.52 -5.56)"/><path class="a" d="M223.2,23l.24-1.52,8.84-2.64h-17.6l.52-3.8h26.6l-.64,4.52L230.8,23h12.92l-.52,3.8H230.28l-.68,4.88a3.06,3.06,0,0,1-1.08,1.9,3.1,3.1,0,0,1-2,.74H218.6l3.52-3.68.56-3.84H209.76l.52-3.8ZM243.92,5.56l-1.2,3H245l-.76,5.32h-8.36l.24-1.52h-15.2l-.24,1.52h-8.36l.76-5.32h2.32l-.36-3h7.6l.36,3h2.24l-.32-3h7.6l.32,3h2.28l1.2-3Z" transform="translate(-1.52 -5.56)"/><path class="a" d="M252.16,8.32l-1.08-1.24h9.12l-1.08,3h4.44l.44-3-1.32-1.52h9.12l-.64,4.56H281.8l-.64,4.56H270.52l-.64,4.56h9.88l-.64,4.56h-9.88l-.76,5.32h12.2L280,33.68H246.6l.64-4.56h13.64l.76-5.32h-11.4l.64-4.56h11.4l.64-4.56h-5.4l-1.08,3h-7.6Z" transform="translate(-1.52 -5.56)"/><path class="a" d="M307.48,34.36l-.52-1-21.16,1,.56-3.72,6.92-6.08h-9.12l.52-3.8H316.6l-.52,3.8H301.6l-6.4,5.64,9.84-.52-1.44-2.84h6.84l3.88,7.52Zm3.52-17-.2,1.52H291l.2-1.52H284.4l9.8-10.68-.88-1.08H310.4l7.44,11.76ZM294.08,15H308.8l-3.6-5.68h-5.92Z" transform="translate(-1.52 -5.56)"/></svg>